<?xml version="1.0" encoding="utf-8"?>
<!-- Generator: Adobe Illustrator 16.0.0, SVG Export Plug-In . SVG Version: 6.00 Build 0)  -->
<!DOCTYPE svg PUBLIC "-//W3C//DTD SVG 1.1//EN" "http://www.w3.org/Graphics/SVG/1.1/DTD/svg11.dtd">
<svg version="1.1" id="Layer_1" xmlns="http://www.w3.org/2000/svg" xmlns:xlink="http://www.w3.org/1999/xlink" x="0px" y="0px"
	 width="50px" height="50px" viewBox="0 0 50 50" enable-background="new 0 0 50 50" xml:space="preserve">
<circle fill="#EAEAEE" cx="24.938" cy="25.063" r="23.938"/>
<g>
	<path fill="#534C9F" d="M28.528,31.481c5.805,0,10.826-4.41,11.188-10.204c0.01-0.226,0.019-0.455,0.019-0.681
		c0-6.817-5.074-11.029-13.194-11.029H15.393c-1.586,0-2.875,1.29-2.875,2.875l0,0c0,1.591,1.291,2.883,2.88,2.877l10.747-0.022
		c4.3,0,6.469,1.955,6.469,5.299c0,3.298-2.169,5.295-6.469,5.295l0,0c-1.556,0-2.804,1.282-2.767,2.838l0.002,0.05
		c0.037,1.502,1.267,2.701,2.768,2.701H28.528z"/>
	<g>
		<path fill="none" stroke="#534DA0" stroke-miterlimit="10" d="M16.944,40.805c-1.619,0-2.935-1.311-2.935-2.932V20.827
			c0-1.62,1.315-2.936,2.935-2.936h9.183c1.62,0,2.938,1.315,2.938,2.936c0,1.621-1.318,2.935-2.938,2.935H19.88v14.112
			C19.88,39.494,18.567,40.805,16.944,40.805z"/>
	</g>
</g>
</svg>
