<svg id="Capa_1" enable-background="new 0 0 377.925 377.925" height="512" viewBox="0 0 377.925 377.925" width="512" xmlns="http://www.w3.org/2000/svg"><g><path d="m167.885 288.099-2.018 44.502h-81.515c.938-21.869-7.046-43.182-22.123-59.052-23.554-24.481-42.06-49.125-51.981-74.193-1.757-4.499-2.614-9.3-2.521-14.13v-75.316c.076-6.843 4.895-12.715 11.592-14.124 7.333-1.019 14.146 3.979 15.376 11.279l10.681 69.822c7.373 19.459 20.876 35.992 38.472 47.102 4.544 3.113 9.591 6.562 15.393 2.862 2.896-3.77 2.537-9.105-.838-12.453l-23.805-18.842c-7.609-4.914-11.043-14.275-8.418-22.944 1.138-4.708 5.877-7.602 10.585-6.464 1.098.266 2.135.741 3.053 1.4l47.945 34.24c8.459 4.701 15.715 11.295 21.2 19.267 13.695 19.572 20.363 43.201 18.922 67.044z" fill="#fed19a"/><path d="m77.421 330.142h91.034c3.223 0 5.835 2.613 5.835 5.835v35.47c0 3.223-2.613 5.835-5.835 5.835h-91.034c-3.223 0-5.835-2.613-5.835-5.835v-35.47c0-3.223 2.613-5.835 5.835-5.835z" fill="#575b6d"/><circle cx="154.286" cy="353.712" fill="#828a9e" r="7.171"/><path d="m210.04 288.099 2.018 44.502h81.515c-.938-21.869 7.046-43.182 22.123-59.052 23.554-24.481 42.06-49.125 51.981-74.193 1.757-4.5 2.614-9.3 2.521-14.13v-75.316c-.076-6.843-4.895-12.715-11.592-14.124-7.333-1.019-14.146 3.979-15.376 11.279l-10.709 69.822c-7.366 19.455-20.859 35.987-38.444 47.102-4.544 3.113-9.591 6.562-15.393 2.862-2.896-3.77-2.537-9.105.838-12.453l23.805-18.842c7.609-4.914 11.043-14.275 8.418-22.944-1.138-4.708-5.877-7.602-10.585-6.464-1.098.266-2.135.741-3.053 1.4l-47.94 34.24c-8.459 4.7-15.715 11.295-21.2 19.266-13.696 19.572-20.366 43.201-18.927 67.045z" fill="#fed19a"/><path d="m206.754 330.142h92.275c3.266 0 5.914 2.648 5.914 5.914v35.956c0 3.266-2.648 5.914-5.914 5.914h-92.275c-3.266 0-5.914-2.648-5.914-5.914v-35.956c0-3.267 2.648-5.914 5.914-5.914z" fill="#575b6d"/><circle cx="221.118" cy="354.763" fill="#828a9e" r="7.266"/><path d="m231.442.001c-15.678-.005-30.806 5.782-42.479 16.248-26.285-23.5-66.644-21.243-90.145 5.041-10.482 11.724-16.268 26.904-16.249 42.631 0 66.212 106.393 136.755 106.393 136.755s106.556-70.309 106.393-136.755c-.03-35.287-28.626-63.886-63.913-63.92z" fill="#ef5261"/></g></svg>